<svg width="44" height="48" viewBox="0 0 44 48" fill="none" xmlns="http://www.w3.org/2000/svg">
<path d="M33.6565 0H9.42383C4.21919 0 0 4.70132 0 10.5007V37.5025C0 43.3019 4.21919 48.0032 9.42383 48.0032H33.6565C38.8612 48.0032 43.0804 43.3019 43.0804 37.5025V10.5007C43.0804 4.70132 38.8612 0 33.6565 0Z" fill="#312E81"/>
<path d="M10.0972 9.75067H8.75091C6.89212 9.75067 5.38525 11.4297 5.38525 13.5009V28.5019C5.38525 30.5731 6.89212 32.2522 8.75091 32.2522H10.0972C11.956 32.2522 13.4628 30.5731 13.4628 28.5019V13.5009C13.4628 11.4297 11.956 9.75067 10.0972 9.75067Z" fill="#C4B5FD"/>
<path d="M11.4431 14.2509C11.4431 13.0082 10.539 12.0008 9.42369 12.0008C8.3084 12.0008 7.4043 13.0082 7.4043 14.2509V27.7518C7.4043 28.9946 8.3084 30.002 9.42369 30.002C10.539 30.002 11.4431 28.9946 11.4431 27.7518V14.2509Z" fill="white" fill-opacity="0.13"/>
<path d="M19.1844 23.2515H7.74121C6.44005 23.2515 5.38525 24.4269 5.38525 25.8767C5.38525 27.3265 6.44005 28.5019 7.74121 28.5019H19.1844C20.4856 28.5019 21.5404 27.3265 21.5404 25.8767C21.5404 24.4269 20.4856 23.2515 19.1844 23.2515Z" fill="#C4B5FD"/>
<path d="M19.5207 23.2515H7.40437C6.66083 23.2515 6.05811 23.8392 6.05811 24.5641C6.05811 25.289 6.66083 25.8767 7.40437 25.8767H19.5207C20.2643 25.8767 20.867 25.289 20.867 24.5641C20.867 23.8392 20.2643 23.2515 19.5207 23.2515Z" fill="white" fill-opacity="0.16"/>
<path d="M31.6374 30.7521H8.75091C6.89212 30.7521 5.38525 32.4311 5.38525 34.5023V36.0024C5.38525 38.0736 6.89212 39.7527 8.75091 39.7527H31.6374C33.4961 39.7527 35.003 38.0736 35.003 36.0024V34.5023C35.003 32.4311 33.4961 30.7521 31.6374 30.7521Z" fill="#8B5CF6"/>
<path d="M30.6273 32.2521H9.76025C8.45909 32.2521 7.4043 33.4275 7.4043 34.8773C7.4043 36.3272 8.45909 37.5025 9.76025 37.5025H30.6273C31.9285 37.5025 32.9833 36.3272 32.9833 34.8773C32.9833 33.4275 31.9285 32.2521 30.6273 32.2521Z" fill="white" fill-opacity="0.1"/>
<path d="M8.75084 39.7526H8.07771C7.33417 39.7526 6.73145 40.4242 6.73145 41.2527V45.003C6.73145 45.8315 7.33417 46.5031 8.07771 46.5031H8.75084C9.49438 46.5031 10.0971 45.8315 10.0971 45.003V41.2527C10.0971 40.4242 9.49438 39.7526 8.75084 39.7526Z" fill="#6D28D9"/>
<path d="M31.6371 39.7526H30.9639C30.2204 39.7526 29.6177 40.4242 29.6177 41.2527V45.003C29.6177 45.8315 30.2204 46.5031 30.9639 46.5031H31.6371C32.3806 46.5031 32.9833 45.8315 32.9833 45.003V41.2527C32.9833 40.4242 32.3806 39.7526 31.6371 39.7526Z" fill="#6D28D9"/>
<path d="M29.9544 44.2529H9.08733C8.52971 44.2529 8.07764 44.7567 8.07764 45.378C8.07764 45.9993 8.52971 46.5031 9.08733 46.5031H29.9544C30.512 46.5031 30.9641 45.9993 30.9641 45.378C30.9641 44.7567 30.512 44.2529 29.9544 44.2529Z" fill="#6D28D9"/>
<path d="M33.6567 19.5013C38.1178 19.5013 41.7342 15.4716 41.7342 10.5007C41.7342 5.52984 38.1178 1.50012 33.6567 1.50012C29.1956 1.50012 25.5791 5.52984 25.5791 10.5007C25.5791 15.4716 29.1956 19.5013 33.6567 19.5013Z" fill="white" fill-opacity="0.12"/>
<path d="M33.6566 18.0012C37.3742 18.0012 40.3879 14.6431 40.3879 10.5007C40.3879 6.35826 37.3742 3.00018 33.6566 3.00018C29.939 3.00018 26.9253 6.35826 26.9253 10.5007C26.9253 14.6431 29.939 18.0012 33.6566 18.0012Z" fill="#34D399"/>
<path d="M30.291 10.5007L32.9835 13.8759L37.3589 6.75043" fill="white"/>
<path d="M30.291 10.5007L32.9835 13.8759L37.3589 6.75043" stroke="white" stroke-width="1.56263" stroke-linecap="round" stroke-linejoin="round"/>
</svg>
